<?xml version="1.0"?>
<svg xmlns="http://www.w3.org/2000/svg" viewBox="0 0 80 80">
    <path style="line-height:normal;text-indent:0;text-align:start;text-decoration-line:none;text-decoration-style:solid;text-decoration-color:#000;text-transform:none;block-progression:tb;isolation:auto;mix-blend-mode:normal" d="M 40.0625 7 C 21.848982 6.9650325 7.0349675 21.723981 7 39.9375 C 6.9650325 58.151018 21.723981 72.965033 39.9375 73 C 58.151018 73.034968 72.965033 58.276019 73 40.0625 C 73.034968 21.848982 58.276019 7.0349675 40.0625 7 z M 40.058594 9 C 57.191234 9.0328924 71.032892 22.925953 71 40.058594 C 70.967108 57.191234 57.074047 71.032892 39.941406 71 C 22.808766 70.967108 8.9671077 57.074047 9 39.941406 C 9.0328924 22.808805 22.925953 8.9671077 40.058594 9 z M 40.056641 12 A 1 1 0 0 0 39.054688 12.998047 A 1 1 0 0 0 40.052734 14 A 1 1 0 0 0 41.054688 13.001953 A 1 1 0 0 0 40.056641 12 z M 34.791016 12.509766 A 1 1 0 0 0 34.591797 12.529297 A 1 1 0 0 0 33.804688 13.703125 A 1 1 0 0 0 34.978516 14.490234 A 1 1 0 0 0 35.765625 13.316406 A 1 1 0 0 0 34.791016 12.509766 z M 45.345703 12.529297 A 1 1 0 0 0 44.337891 13.332031 A 1 1 0 0 0 45.121094 14.509766 A 1 1 0 0 0 46.298828 13.726562 A 1 1 0 0 0 45.515625 12.548828 A 1 1 0 0 0 45.345703 12.529297 z M 29.726562 14.037109 A 1 1 0 0 0 29.335938 14.111328 A 1 1 0 0 0 28.792969 15.417969 A 1 1 0 0 0 30.097656 15.960938 A 1 1 0 0 0 30.640625 14.65625 A 1 1 0 0 0 29.726562 14.037109 z M 50.404297 14.076172 A 1 1 0 0 0 49.457031 14.691406 A 1 1 0 0 0 49.996094 16 A 1 1 0 0 0 51.304688 15.460938 A 1 1 0 0 0 50.765625 14.154297 A 1 1 0 0 0 50.404297 14.076172 z M 25.058594 16.521484 A 1 1 0 0 0 24.490234 16.689453 A 1 1 0 0 0 24.212891 18.076172 A 1 1 0 0 0 25.599609 18.355469 A 1 1 0 0 0 25.876953 16.96875 A 1 1 0 0 0 25.058594 16.521484 z M 55.064453 16.578125 A 1 1 0 0 0 54.212891 17.021484 A 1 1 0 0 0 54.486328 18.408203 A 1 1 0 0 0 55.875 18.134766 A 1 1 0 0 0 55.601562 16.748047 A 1 1 0 0 0 55.064453 16.578125 z M 20.962891 19.871094 A 1 1 0 0 0 20.240234 20.162109 A 1 1 0 0 0 20.238281 21.576172 A 1 1 0 0 0 21.652344 21.578125 A 1 1 0 0 0 21.654297 20.164062 A 1 1 0 0 0 20.962891 19.871094 z M 59.146484 19.947266 A 1 1 0 0 0 58.423828 20.238281 A 1 1 0 0 0 58.419922 21.652344 A 1 1 0 0 0 59.835938 21.654297 A 1 1 0 0 0 59.837891 20.240234 A 1 1 0 0 0 59.146484 19.947266 z M 17.601562 23.955078 A 1 1 0 0 0 16.75 24.396484 A 1 1 0 0 0 17.023438 25.785156 A 1 1 0 0 0 18.412109 25.511719 A 1 1 0 0 0 18.138672 24.125 A 1 1 0 0 0 17.601562 23.955078 z M 62.494141 24.046875 A 1 1 0 0 0 61.925781 24.212891 A 1 1 0 0 0 61.648438 25.599609 A 1 1 0 0 0 63.033203 25.878906 A 1 1 0 0 0 63.3125 24.492188 A 1 1 0 0 0 62.494141 24.046875 z M 39.248047 26.726562 C 30.798047 26.726562 25 32.540813 25 41.007812 C 25 49.679813 30.678109 55.274391 39.537109 55.275391 C 41.572109 55.275391 43.523141 55.000484 44.994141 54.521484 L 44.994141 52.09375 C 43.968141 52.52075 41.81125 52.810547 39.65625 52.810547 C 32.35325 52.810547 27.667969 48.24375 27.667969 41.09375 C 27.667969 34.09775 32.404594 29.154297 39.058594 29.154297 C 45.780594 29.154297 50.330078 33.294328 50.330078 39.486328 C 50.330078 43.369328 49.047297 45.865234 47.029297 45.865234 C 45.866297 45.865234 45.216797 45.148172 45.216797 43.951172 L 45.216797 34.337891 L 42.308594 34.337891 L 42.308594 36.40625 L 42.019531 36.40625 C 41.352531 34.90125 39.829203 33.978516 38.033203 33.978516 C 34.544203 33.978516 32.150391 36.869391 32.150391 41.025391 C 32.150391 45.352391 34.527938 48.259766 38.085938 48.259766 C 40.087937 48.259766 41.574969 47.319797 42.292969 45.591797 L 42.583984 45.591797 C 42.856984 47.250797 44.414797 48.363281 46.466797 48.363281 C 50.469797 48.363281 53 44.890813 53 39.382812 C 53 31.891812 47.373047 26.726562 39.248047 26.726562 z M 15.099609 28.617188 A 1 1 0 0 0 14.152344 29.232422 A 1 1 0 0 0 14.691406 30.541016 A 1 1 0 0 0 15.998047 30.001953 A 1 1 0 0 0 15.458984 28.693359 A 1 1 0 0 0 15.099609 28.617188 z M 64.974609 28.720703 A 1 1 0 0 0 64.583984 28.796875 A 1 1 0 0 0 64.039062 30.101562 A 1 1 0 0 0 65.345703 30.644531 A 1 1 0 0 0 65.888672 29.339844 A 1 1 0 0 0 64.974609 28.720703 z M 13.556641 33.679688 A 1 1 0 0 0 12.546875 34.482422 A 1 1 0 0 0 13.332031 35.660156 A 1 1 0 0 0 14.507812 34.876953 A 1 1 0 0 0 13.724609 33.699219 A 1 1 0 0 0 13.556641 33.679688 z M 66.498047 33.789062 A 1 1 0 0 0 66.298828 33.806641 A 1 1 0 0 0 65.511719 34.982422 A 1 1 0 0 0 66.685547 35.769531 A 1 1 0 0 0 67.472656 34.595703 A 1 1 0 0 0 66.498047 33.789062 z M 38.667969 36.714844 C 40.804969 36.714844 42.173828 38.39175 42.173828 41.09375 C 42.173828 43.79575 40.804812 45.507812 38.632812 45.507812 C 36.563813 45.507813 35.296875 43.84775 35.296875 41.09375 C 35.296875 38.33975 36.546969 36.714844 38.667969 36.714844 z M 13.001953 38.945312 A 1 1 0 0 0 12 39.943359 A 1 1 0 0 0 12.998047 40.945312 A 1 1 0 0 0 14 39.947266 A 1 1 0 0 0 13.001953 38.945312 z M 67.001953 39.052734 A 1 1 0 0 0 66.001953 40.050781 A 1 1 0 0 0 67 41.052734 A 1 1 0 0 0 68.001953 40.054688 A 1 1 0 0 0 67.001953 39.052734 z M 13.511719 44.216797 A 1 1 0 0 0 13.314453 44.236328 A 1 1 0 0 0 12.525391 45.410156 A 1 1 0 0 0 13.699219 46.197266 A 1 1 0 0 0 14.488281 45.023438 A 1 1 0 0 0 13.511719 44.216797 z M 66.496094 44.318359 A 1 1 0 0 0 65.488281 45.119141 A 1 1 0 0 0 66.271484 46.296875 A 1 1 0 0 0 67.449219 45.513672 A 1 1 0 0 0 66.666016 44.335938 A 1 1 0 0 0 66.496094 44.318359 z M 15.042969 49.285156 A 1 1 0 0 0 14.652344 49.359375 A 1 1 0 0 0 14.107422 50.666016 A 1 1 0 0 0 15.414062 51.208984 A 1 1 0 0 0 15.957031 49.904297 A 1 1 0 0 0 15.042969 49.285156 z M 64.945312 49.382812 A 1 1 0 0 0 63.998047 49.998047 A 1 1 0 0 0 64.537109 51.304688 A 1 1 0 0 0 65.84375 50.767578 A 1 1 0 0 0 65.306641 49.458984 A 1 1 0 0 0 64.945312 49.382812 z M 17.533203 53.957031 A 1 1 0 0 0 16.966797 54.125 A 1 1 0 0 0 16.6875 55.511719 A 1 1 0 0 0 18.074219 55.789062 A 1 1 0 0 0 18.353516 54.404297 A 1 1 0 0 0 17.533203 53.957031 z M 62.441406 54.041016 A 1 1 0 0 0 61.589844 54.484375 A 1 1 0 0 0 61.863281 55.871094 A 1 1 0 0 0 63.25 55.599609 A 1 1 0 0 0 62.976562 54.210938 A 1 1 0 0 0 62.441406 54.041016 z M 20.886719 58.054688 A 1 1 0 0 0 20.164062 58.345703 A 1 1 0 0 0 20.162109 59.759766 A 1 1 0 0 0 21.576172 59.761719 A 1 1 0 0 0 21.578125 58.347656 A 1 1 0 0 0 20.886719 58.054688 z M 59.070312 58.128906 A 1 1 0 0 0 58.347656 58.419922 A 1 1 0 0 0 58.345703 59.835938 A 1 1 0 0 0 59.759766 59.837891 A 1 1 0 0 0 59.761719 58.423828 A 1 1 0 0 0 59.070312 58.128906 z M 24.976562 61.417969 A 1 1 0 0 0 24.126953 61.861328 A 1 1 0 0 0 24.400391 63.248047 A 1 1 0 0 0 25.787109 62.974609 A 1 1 0 0 0 25.513672 61.587891 A 1 1 0 0 0 24.976562 61.417969 z M 54.96875 61.482422 A 1 1 0 0 0 54.402344 61.648438 A 1 1 0 0 0 54.123047 63.035156 A 1 1 0 0 0 55.509766 63.314453 A 1 1 0 0 0 55.789062 61.927734 A 1 1 0 0 0 54.96875 61.482422 z M 29.640625 63.923828 A 1 1 0 0 0 28.693359 64.539062 A 1 1 0 0 0 29.232422 65.847656 A 1 1 0 0 0 30.539062 65.308594 A 1 1 0 0 0 30 64 A 1 1 0 0 0 29.640625 63.923828 z M 50.289062 63.96875 A 1 1 0 0 0 49.900391 64.042969 A 1 1 0 0 0 49.355469 65.349609 A 1 1 0 0 0 50.662109 65.892578 A 1 1 0 0 0 51.205078 64.587891 A 1 1 0 0 0 50.289062 63.96875 z M 34.707031 65.46875 A 1 1 0 0 0 33.699219 66.271484 A 1 1 0 0 0 34.482422 67.449219 A 1 1 0 0 0 35.660156 66.666016 A 1 1 0 0 0 34.876953 65.488281 A 1 1 0 0 0 34.707031 65.46875 z M 45.21875 65.496094 A 1 1 0 0 0 45.021484 65.513672 A 1 1 0 0 0 44.232422 66.689453 A 1 1 0 0 0 45.40625 67.476562 A 1 1 0 0 0 46.195312 66.302734 A 1 1 0 0 0 45.21875 65.496094 z M 39.949219 66.001953 A 1 1 0 0 0 38.947266 67 A 1 1 0 0 0 39.945312 68.001953 A 1 1 0 0 0 40.947266 67.001953 A 1 1 0 0 0 39.949219 66.001953 z"/>
</svg>
