<?xml version="1.0" encoding="utf-8"?>
<!-- Generator: Adobe Illustrator 20.1.0, SVG Export Plug-In . SVG Version: 6.00 Build 0)  -->
<svg version="1.1" id="圖層_1" xmlns="http://www.w3.org/2000/svg" xmlns:xlink="http://www.w3.org/1999/xlink" x="0px" y="0px"
	 viewBox="0 0 64 1086.1" style="enable-background:new 0 0 64 1086.1;" xml:space="preserve">
<style type="text/css">
	.st0{opacity:0.5;}
	.st1{fill:#FFCD05;}
	.st2{fill:none;}
</style>
<g class="st0">
	<path class="st1" d="M18,1074.9c-0.7-8.5-1.4-1016.2-0.7-1019.2C18.1,59.7,18.9,1071,18,1074.9"/>
	<path class="st1" d="M43.6,638.6c-0.2-204.3-0.4-408.6-0.6-613c0-2.4-0.1-4.8-0.2-8c-1,1.3-1.7,2.1-2.4,3.1
		c-1.8-6.2-1.8-6.2-1.9-14.6c0-5.2-0.6-7-2.5-5.9c-2.6,1.4-5.3,2.8-7.7,5.9c-2.7,3.5-5.3,8.8-6,17c-0.7,8.3-0.9,17-0.9,25.6
		c0,61,0.1,122,0.1,183c0.1,128.3,0.2,256.6,0.4,385c0.1,145.7,0.3,291.3,0.5,437c0,2.4,0.1,4.8,0.1,7.3c0.6-0.4,0.9-0.7,1.2-0.9
		c0.2,2.3,0.2,5.8,0.4,5.9c1.6,0.8,1,3.9,1,6.1c0.1,4.5,0.1,8.9,0.1,13.9c2.5-2.9,3.9-8.6,4-14.1c0.2-9.2,0.4-18.4,0.6-27.6
		c0.3-0.1,0.6-0.3,1-0.4c2.3,7.2,0.8,17,1.6,25.3c2.3-2,2.7-3.2,2.7-8.7c0-3.7-0.1-7.4,0-11c0.1-1.4,0.6-3.5,1.1-3.9
		c0.4-0.3,1.3,0.9,1.5,2.1c0.5,3,1.3,2.6,2,1.4c2.4-4.6,4.5-9.1,4.4-18.6C43.8,899.9,43.7,769.3,43.6,638.6 M39,214.1
		c-1.3-1.5-2.4-183.9-1.2-184.4C39.1,30.4,40.5,213.4,39,214.1"/>
	<rect y="0" class="st2" width="64" height="1086.1"/>
</g>
</svg>
