<svg id="圖層_1" data-name="圖層 1" xmlns="http://www.w3.org/2000/svg" viewBox="0 0 1000 1129.62"><defs><style>.cls-1{fill:#fff;}</style></defs><title>learn</title><path class="cls-1" d="M35.85,294.82c21.52-4.65,39.87-5.92,58.19-6.91,12.4-.67,25-.31,37.42-.07,9.19.18,18.36.84,27.53,1.4,19.64,1.2,39.3,2.27,58.89,3.81,14.35,1.13,28.65,2.7,42.87,4.48a106.07,106.07,0,0,1,16.7,3.88,13.28,13.28,0,0,1,7.81,5.89c1.37,2.27,1.11,4.43-.89,6.44a12.11,12.11,0,0,1-8.26,3.21,14.76,14.76,0,0,1-3.88-.38c-21.42-4.92-43.73-6.11-66-7.56-20.28-1.33-40.5-3.19-60.81-4.21-32.25-1.63-64.45-1.56-96,4.47-8.22,1.57-16.21,3.71-24.35,5.48a85.66,85.66,0,0,1-11.39,2c-8.32.67-15.57-5.06-13.33-10.57a36.3,36.3,0,0,1,5.28-8.74c21.57-27.06,40.7-55,59.82-82.86,20.81-30.35,42-60.6,59.06-92.11,10.79-20,21-40.12,31.19-60.24,5.46-10.76,9-21.83,8.79-33.32a36.35,36.35,0,0,0-1.4-8.06c-.49-2-5.24-3.61-7.91-2.7a67.67,67.67,0,0,0-10.18,4,91.72,91.72,0,0,0-26.8,21.63C96.86,69.05,81,95.86,72.84,124.67c-1,3.59-1.93,7.1-.81,10.78.38,1.26-.09,2.69-.46,4-1.33,4.72-9.89,6.72-15.61,3.79-4-2-6.32-4.85-6.38-8.08a54.9,54.9,0,0,1,1.27-14.87c5.71-22,16.61-42.92,30.27-63.16,7.8-11.54,16.15-22.91,28.22-32.65a254.08,254.08,0,0,1,22-15.56,61.91,61.91,0,0,1,20.5-8c13-2.78,25.29.7,32,8.87a22.37,22.37,0,0,1,5.07,13,71.5,71.5,0,0,1-6,33.63q-5.53,13.06-11.89,26c-1.83,3.71-13.46,26.17-15.15,29.27-1.39,2.55-2.81,5.09-4.18,7.64a717.8,717.8,0,0,1-40.57,66.48c-23.1,33.63-46.7,67.09-70.07,100.64C39.7,288.42,38.55,290.48,35.85,294.82Z"/><path class="cls-1" d="M208.9,250.44a8.1,8.1,0,0,1-7,5.68c-17.78,1.71-33.68-1-47.07-10.53-3.17-2.25-7.11-4-10.62-6s-4.93-4.92-4-8.29a37.18,37.18,0,0,0,1.36-9,33.79,33.79,0,0,1,6.72-20.45c10.07-13.34,25-23.12,45.49-28.66a52.42,52.42,0,0,1,17.39-1.67c14.74,1,24.43,10.47,21,20.5-2.44,7.25-7.85,13.42-14.6,19.06A130,130,0,0,1,186.71,230a62.37,62.37,0,0,0-8.91,5.09c-.45.3.06,1.81.78,2.34,3.55,2.6,8.49,1.86,14.49,2.74,2.29-.29,4.83-.56,7.51-.87a8,8,0,0,1,8.59,10.32ZM168.67,218c12.66-4,21-8.41,30-16.64,3.14-2.85,5.54-6.1,8.19-9.2.82-1-1.27-3-2.91-3a16,16,0,0,0-3.87.09C184.24,194,173,201.7,167.35,213.07,166.54,214.7,166.25,216.61,168.67,218Z"/><path class="cls-1" d="M463.81,190.79c-1,2.12-2,4.47-4,6.13a83.55,83.55,0,0,1-12.54,8.58c-20.14,11.16-42.83,19.36-66.3,26.61-9.2,2.84-18.95,3.59-30,3.45a75.72,75.72,0,0,1-36-7.65c-1.07-.53-2.11-1.09-3.22-1.58-5-2.21-7.55-1.94-11.81,1.38-3.92,3.06-7.55,6.29-11.56,9.29a60.75,60.75,0,0,1-20.89,10c-12.8,3.43-25.75-1.23-28.78-10.6a26.57,26.57,0,0,1,.46-17.56c5.88-16.16,17-30.39,33.89-42.4a60.92,60.92,0,0,1,19.32-9.23c26-7.22,54.06,5.5,54.45,24.77a9,9,0,0,1-3.42,7.61,14,14,0,0,1-10.59,2.5c-3.37-.68-5.77-2.3-6.68-4.58s-.9-4.48-1.54-6.7c-.94-3.25-3.6-5.78-7.4-7.78a18.94,18.94,0,0,0-13-1.57,37.79,37.79,0,0,0-14.7,6.63c-15.26,11.19-25.33,24.17-28.23,39.57-.06.35.51,1,.91,1.09,1.18.15,2.77.39,3.56,0a41.18,41.18,0,0,0,7.38-4.41c7.68-6.21,15-12.63,22.73-18.82a75.73,75.73,0,0,1,11.28-7.5c4.73-2.56,13-.53,14.54,3.44a31.22,31.22,0,0,1,1.48,6.69c.74,4.56,4.68,7.39,10.42,9.15A57.78,57.78,0,0,0,362.41,219a132.46,132.46,0,0,0,13-3.13c23.43-7.34,45.86-15.82,65.23-27.73a62.68,62.68,0,0,1,9.41-4.84,11.73,11.73,0,0,1,9.3.48C462.76,185.34,464.93,188.53,463.81,190.79Z"/><path class="cls-1" d="M622.4,218.18a63.06,63.06,0,0,1-10.22,4,754.53,754.53,0,0,1-90,20c-5.11.82-10.37,1.31-15.6,1.65-16.59,1.09-29.54-3.94-36.8-14.39-4.94-7.1-7-14.63-5.71-22.51.46-2.7,1.46-5.35,2.11-8,.71-2.93-.48-5.36-4.26-7-2.22-1-4.52-1.87-6.62-3-11.55-6-16.12-14.23-15.31-23.83.89-10.42,7.46-19.25,18.55-26.27,3.29-2.08,7.63-3.55,11.81-4.75,7.41-2.13,16.14.09,20.59,4.93,3.67,4,5.07,8.33,3.7,13a57.52,57.52,0,0,1-8.67,18c-1.46,2-2.83,4-5,7.09,3.21,1.79,5.21,2.94,7.27,4,5.89,3.18,7.55,7.21,5.21,12.09-1.24,2.59-2.47,5.18-3.48,7.81-2.41,6.25-2.82,12.57-.31,18.83,2.11,5.28,8.69,8.3,16.45,7.63,3.89-.33,7.72-1,11.57-1.64a712.17,712.17,0,0,0,80.87-17.45c4.88-1.34,9.82-2.61,14.84-3.67,4.2-.88,9.58.9,11.81,3.57C627.88,211.59,626.8,216,622.4,218.18Z"/><path class="cls-1" d="M872.89,204.28a32.27,32.27,0,0,1-8,3.91q-46.55,16.42-93.22,32.68a67.42,67.42,0,0,1-20.73,4c-11.75.3-20.41-3.12-25.73-10.23a31.77,31.77,0,0,1-5.44-10.16,193.17,193.17,0,0,1-5.26-24.2c-1.78-12.64-2.76-25.33-4.23-38a18.74,18.74,0,0,0-2-5.19,2.09,2.09,0,0,0-1.51-.75c-1.19,0-3,0-3.45.46a73.67,73.67,0,0,0-7.9,9.33c-13.86,21.16-24.94,42.94-30.62,65.92a127.89,127.89,0,0,1-4.64,16A30.35,30.35,0,0,1,654,257.9c-4.71,4.93-15.62,4.71-20-.37a29.86,29.86,0,0,1-5.94-10c-4.27-13.29-7.8-26.68-8.72-40.33-.3-4.54-.8-9.06-1-13.6a16.53,16.53,0,0,1,1-5.35c.76-2.43,4.71-4.68,8.46-5s8.39,1.07,9.91,3.45a17,17,0,0,1,2.76,6.41c.71,5,.74,10,1.3,14.94.2,1.74.47,3.7,3.54,4.47,2.4-1.16,2.35-3.09,3-4.76,5.61-15.47,14.15-30.23,23.45-44.75,4.5-7,10.35-13.66,15.94-20.33a31.64,31.64,0,0,1,12.48-8.54c9.8-4,19.53-1.17,24.29,3.8a26,26,0,0,1,6.15,9.92,136.08,136.08,0,0,1,4.88,21.48c1.73,12.64,2.51,25.35,4.24,38a80,80,0,0,0,4.43,16c1.83,5.08,6.11,6.21,13.6,3.91,4.8-1.47,9.49-3.13,14.18-4.77q37-12.9,73.94-25.82c3.52-1.23,7.05-2.46,10.7-3.49a51.61,51.61,0,0,1,7.55-1.47c5-.64,10,1.14,11.5,3.82C877.45,198.85,876.26,201.85,872.89,204.28Z"/><path class="cls-1" d="M124,698.55c1.68-7.14,3.35-13.4,4.56-19.69.86-4.48,2-9.07,1.48-13.53-2-17.22-5.38-34.29-13.71-50.73-14.77-29.13-40.82-51.59-81-65.79-5.86-2.07-11.83-4-17.56-6.22a76.49,76.49,0,0,1-11.42-5.31c-7.43-4.43-8.32-11.78-2.56-17.23,4.35-4.11,10-7.23,16.21-9.85,9.52-4,19.14-8,29-11.63,26.77-9.76,53.43-19.69,80.62-28.87,41.43-14,81.33-29.8,120.45-46.61q41.91-18,84-35.8c3.92-1.66,7.87-3.32,12-4.69a28.31,28.31,0,0,1,7.56-1.29c4.26-.17,7.54,1.27,9.73,3.81a4.88,4.88,0,0,1-1,7.58,104.75,104.75,0,0,1-13.86,7.52c-21.18,9.18-42.55,18.15-63.85,27.21C262.75,436.72,241,446.1,219,455.26c-6.72,2.8-10.21,6.44-11.58,11.85C201.89,489,195.63,510.86,190,532.75c-4.75,18.32-9,36.7-13.6,55-7.16,28.63-14.44,57.25-21.59,85.88-1.12,4.46-1.64,9-2.77,13.47a81.72,81.72,0,0,1-4.16,13.26c-.9,2-3.27,3.93-5.56,5.47-4.29,2.86-12.54,1.91-15.43-1.77C125.33,702.17,124.66,699.92,124,698.55ZM29.39,527.14c3.42,3.59,9.56,4.44,14.61,6.33,15.09,5.65,29.47,12,42.26,19.92,23,14.26,39.07,31.72,50.12,51.52,1.87,3.36,3.9,6.68,6,10,.14.23,1.14.35,1.69.29s1.31-.36,1.39-.64c3-11.14,6-22.27,8.81-33.43,6.52-25.92,12.83-51.87,19.47-77.78,2.17-8.48,5.12-16.87,7.58-25.32.62-2.13,1.66-4.43-1.32-6.25-17.5,3.85-109,36-142,50C34.72,523.12,30.29,523.76,29.39,527.14Z"/><path class="cls-1" d="M430.22,635.49c-4.17,2.2-8.62,4.16-13.11,6C395.2,650.73,373.35,660,351.25,669c-12.45,5.06-25.21,9.8-38.1,14.3a78.09,78.09,0,0,1-16.75,3.8c-17.34,1.95-30.32-2.86-37.44-14.94-2.44-4.15-3.47-8.73-4.68-13.17-1-3.56-1.08-7.22-1.93-10.79-.4-1.67-1.64-3.24-2.45-4.77-3.89.45-4.84,2.26-5.91,3.87-5.5,8.24-11.11,16.45-16.33,24.77-9.93,15.82-19.55,31.73-29.49,47.55a62.05,62.05,0,0,1-7.61,9.48c-2.55,2.68-8.23,3.76-12.26,2.81-4.59-1.09-8.19-3.89-7.8-7.09a64,64,0,0,1,3-13.36c9.06-26,18.63-52,27.43-78,6.71-19.87,12.09-40,18.85-59.82,9.17-26.94,18.69-53.82,28.83-80.58,6-15.79,13.42-31.31,20.31-46.93a20.86,20.86,0,0,1,3.93-6.18,16.76,16.76,0,0,1,5.87-3.45c5.31-2,13.16,1,13.2,5.1a18,18,0,0,1-1.13,6.69c-5.45,14-11.07,28-16.67,42-14.53,36.3-26.81,73-38.07,109.81-3.22,10.53-7.76,20.9-8.7,31.73,3.53-3.71,6.8-7.56,10.72-11.07A57.71,57.71,0,0,1,249,612.93c6-3.25,14.83-2,19.05,2.43a23.24,23.24,0,0,1,4.07,6.11c2.69,5.67,3.24,11.58,3.23,17.49,0,8.23,1.77,16.28,4.43,24.26a14.22,14.22,0,0,0,3.09,4.92,9.29,9.29,0,0,0,8.4,2.7,112.92,112.92,0,0,0,16.66-4c10-3.44,19.79-7.18,29.4-11.11,23.19-9.48,46.23-19.15,69.33-28.74,3.95-1.64,7.85-3.33,11.92-4.81,6.42-2.33,12.41-1.69,16,1.52C438.47,627.18,436.85,632,430.22,635.49Z"/><path class="cls-1" d="M584.56,625.67a21,21,0,0,1-5.12,4.07c-21.5,11.14-42.95,22.32-64.73,33.2-9.08,4.53-19.44,7.45-30.46,9.2-23,3.64-42-2.83-51.27-17.69a56.37,56.37,0,0,1-8.72-27.84c1.15-5.35,2-10.73,3.59-16,.63-2.12,2.61-4.1,4.36-6,1.93-2.08,7.23-3,10.6-2.2s6.81,3.76,6.69,6.15a26.87,26.87,0,0,1-1.14,6.68c-3.15,10.09-1,19.91,3.86,29.38,5.65,11,14.18,13.74,30.8,10.79,10.89-1.94,20.39-6.17,29.37-10.79,13.67-7,27.21-14.2,40.86-21.26,4.19-2.17,8.52-4.22,12.89-6.22a23.2,23.2,0,0,1,11.27-1.76C584.33,615.85,588.5,621.72,584.56,625.67ZM436.11,570.3c1.54-2.68,4.46-4.31,8-4.89,1.78,0,3.28-.3,4.31.05,5.78,2,11.66,3.84,17.07,6.22,3.43,1.51,4.76,4.32,4,7.13-1.34,4.7-5.39,8.12-11.91,9.84a20.22,20.22,0,0,1-14.72-1.44C435.72,583.51,432.77,576.1,436.11,570.3Z"/><path class="cls-1" d="M828.8,620.9a32.27,32.27,0,0,1-8,3.91q-46.55,16.42-93.22,32.68a67.42,67.42,0,0,1-20.73,4c-11.75.3-20.41-3.12-25.73-10.23a31.77,31.77,0,0,1-5.44-10.16,193,193,0,0,1-5.26-24.2c-1.78-12.64-2.76-25.33-4.24-38a18.74,18.74,0,0,0-2-5.19,2.09,2.09,0,0,0-1.51-.75c-1.19,0-3,0-3.45.46a73.67,73.67,0,0,0-7.9,9.33c-13.86,21.16-24.94,42.94-30.62,65.92a128.06,128.06,0,0,1-4.64,16,30.37,30.37,0,0,1-6.27,9.83c-4.71,4.93-15.62,4.71-20-.37a29.86,29.86,0,0,1-5.94-10c-4.27-13.29-7.8-26.68-8.72-40.33-.3-4.54-.8-9.06-1-13.6a16.53,16.53,0,0,1,1-5.35c.76-2.43,4.71-4.68,8.46-5s8.39,1.07,9.91,3.45a17,17,0,0,1,2.76,6.41c.71,5,.74,10,1.3,14.94.2,1.74.47,3.7,3.54,4.47,2.4-1.16,2.35-3.09,3-4.76,5.61-15.47,14.15-30.23,23.45-44.75,4.5-7,10.35-13.66,15.94-20.33A31.64,31.64,0,0,1,656,550.75c9.8-4,19.53-1.17,24.29,3.8a26,26,0,0,1,6.15,9.92A136.08,136.08,0,0,1,691.32,586c1.73,12.64,2.51,25.35,4.24,38a80,80,0,0,0,4.43,16c1.83,5.08,6.11,6.21,13.6,3.91,4.8-1.47,9.49-3.13,14.18-4.77q37-12.9,73.94-25.82c3.52-1.23,7.05-2.46,10.7-3.49A51.61,51.61,0,0,1,820,608.3c5-.64,10,1.14,11.5,3.82C833.36,615.48,832.16,618.48,828.8,620.9Z"/><path class="cls-1" d="M998.27,607.85a36.72,36.72,0,0,1-6.49,5.07c-23,13.58-46.58,26.64-72.41,37.66a265.26,265.26,0,0,1-40.8,13.54c-4.94,1.22-10.09,2-15.14,3s-11.22-.45-15.08,2.3c-5,3.58-3.11,8.63-3.22,13-.7,27.68-5.42,55.25-4.8,83a13.24,13.24,0,0,1-1.91,6.58c-1.51,2.67-4.62,4.42-9,4.56a11.65,11.65,0,0,1-9.66-3.91,14.51,14.51,0,0,1-3.54-10.47q.68-16.32,1.64-32.64c.22-3.62,1-7.23,1.25-10.85,1-17.23,1.46-34.44,3.61-51.66,2.66-21.23,3.2-42.58,5.26-63.86,1.53-15.83,4-31.62,6.1-47.43,1.4-10.39,3-20.76,4.52-31.14,3-20.3,5.82-40.62,9.29-60.89,3.32-19.36,7.25-38.68,11.2-58a37,37,0,0,1,4.39-10.37c1.74-3.07,6.82-4.69,11.31-4.16,4.93.58,9.32,4.44,8.63,8-1.12,5.83-2.81,11.61-3.84,17.45-2.38,13.5-4.5,27-6.74,40.54-2.32,14-4.77,27.92-6.94,41.9-2,12.63-3.63,25.27-5.4,37.92-2.15,15.35-4.35,30.69-6.35,46.05-.82,6.32-1.29,12.68-1.67,19-.19,3.13-1.25,6.33,1.62,11,4.4-3.28,7.49-5.56,10.55-7.86,9-6.72,19.23-12.39,30-17.64a72.59,72.59,0,0,1,12.17-4.39,16.8,16.8,0,0,1,14.19,3,5.65,5.65,0,0,1-1.1,9.77c-2.64,1.32-5.58,2.37-8.36,3.56-23.45,10-41.42,23.65-54.65,40.28-2.17,2.73-4.71,5.61-2.68,9,1.31,2.18,8.14,3.05,14.57,1,12-3.74,24-7.5,35.23-12.14a439.92,439.92,0,0,0,59.06-29.52c4.95-3,10.1-5.82,15.29-8.6a45.89,45.89,0,0,1,6.75-2.77c4.07-1.39,9.58-.43,12.49,2.05S1000.89,605.38,998.27,607.85Z"/><path class="cls-1" d="M24.55,1053.11c-1.65,9.19,1,18.13,3.89,27s8.6,17.11,18.44,23.66A52,52,0,0,0,75,1112.54a155.76,155.76,0,0,0,31.32-1.86,271.19,271.19,0,0,0,62.88-19.26c31.68-13.86,63.24-27.88,91.39-45.17a76.58,76.58,0,0,1,9.6-4.73,13.58,13.58,0,0,1,11.07.66c3.33,2,4.1,4.64,3,7.41a13.1,13.1,0,0,1-3.5,4.79,57.5,57.5,0,0,1-8.11,5.93c-6.42,3.89-12.71,8-19.69,11.34-23.73,11.45-47.37,23-71.73,33.78a287.52,287.52,0,0,1-79.82,22.73c-.65.09-1.28.22-1.92.31-40.57,5.15-71.31-7-88-32.31-4.9-7.44-7.5-15.41-9.31-23.57-4.47-20.08-1.41-39.89,4-59.55C19,966.53,43.51,923.25,82.46,884.08c14.24-14.31,30.51-27.32,51.23-37.46a131,131,0,0,1,29.74-10.47c20-4.39,37.68-1.43,53.35,7.81a62.52,62.52,0,0,1,19.05,17.22,66.11,66.11,0,0,1,12,27.24c2.37,13.13,2.1,26.32-3.29,39.18a25.31,25.31,0,0,1-5.31,7.17c-2,2.1-7.09,2.78-10.8,1.9-3.46-.82-6.93-3.89-6.51-6.24q1.22-6.75,3-13.44c4.39-16.21-.13-31.58-9.1-46.52a41.89,41.89,0,0,0-5.7-7.15c-11.15-11.66-25.45-15.88-47.89-9.35a107.29,107.29,0,0,0-18.41,7.83c-20.49,10.39-35.63,24.1-49.21,38.69a296.52,296.52,0,0,0-42.86,59.71,238.61,238.61,0,0,0-27.19,79.29C24,1044,24.55,1048.58,24.55,1053.11Z"/><path class="cls-1" d="M456.79,1051.43a63.06,63.06,0,0,1-10.22,4,754.53,754.53,0,0,1-90,20c-5.11.82-10.37,1.31-15.59,1.65-16.59,1.09-29.54-3.94-36.8-14.39-4.94-7.1-7-14.63-5.71-22.51.46-2.7,1.46-5.35,2.11-8,.71-2.93-.48-5.36-4.26-7-2.22-1-4.52-1.87-6.62-3-11.55-6-16.12-14.23-15.31-23.83.89-10.42,7.46-19.25,18.55-26.27,3.29-2.08,7.63-3.55,11.81-4.75,7.41-2.13,16.14.09,20.59,4.93,3.67,4,5.07,8.33,3.7,13a57.52,57.52,0,0,1-8.67,18c-1.46,2-2.83,4-5,7.09,3.21,1.79,5.21,2.94,7.27,4,5.89,3.18,7.55,7.21,5.21,12.09-1.24,2.59-2.47,5.18-3.48,7.81-2.41,6.25-2.82,12.57-.31,18.83,2.11,5.28,8.69,8.3,16.45,7.63,3.89-.33,7.72-1,11.57-1.64A712.12,712.12,0,0,0,433,1041.76c4.88-1.34,9.82-2.61,14.84-3.67,4.2-.88,9.58.9,11.81,3.57C462.28,1044.85,461.2,1049.27,456.79,1051.43Z"/><path class="cls-1" d="M498.11,1083.69a8.1,8.1,0,0,1-7,5.68c-17.78,1.71-33.68-1-47.07-10.53-3.17-2.25-7.11-4-10.62-6s-4.93-4.92-4-8.29a37.18,37.18,0,0,0,1.36-9,33.79,33.79,0,0,1,6.72-20.45c10.07-13.34,25-23.12,45.49-28.66a52.42,52.42,0,0,1,17.39-1.67c14.74,1,24.43,10.47,21,20.5-2.44,7.25-7.85,13.42-14.6,19.06a130,130,0,0,1-30.87,18.84,62.37,62.37,0,0,0-8.91,5.09c-.45.3.06,1.81.78,2.34,3.55,2.6,8.49,1.86,14.49,2.74,2.29-.29,4.83-.56,7.51-.87a8,8,0,0,1,8.59,10.32Zm-40.24-32.44c12.66-4,21-8.41,30-16.64,3.14-2.85,5.54-6.1,8.19-9.2.82-1-1.27-3-2.91-3a16,16,0,0,0-3.87.09c-15.86,4.66-27.14,12.41-32.75,23.77C455.75,1048,455.46,1049.87,457.87,1051.25Z"/><path class="cls-1" d="M753,1024c-1,2.12-2,4.47-4,6.13a83.55,83.55,0,0,1-12.54,8.58c-20.14,11.16-42.83,19.36-66.3,26.61-9.2,2.84-18.95,3.59-30,3.45a75.72,75.72,0,0,1-36-7.65c-1.07-.53-2.11-1.09-3.22-1.58-5-2.21-7.55-1.94-11.81,1.38-3.92,3.06-7.55,6.29-11.56,9.29a60.75,60.75,0,0,1-20.89,10c-12.8,3.43-25.75-1.23-28.78-10.6a26.57,26.57,0,0,1,.46-17.56c5.88-16.16,17-30.39,33.89-42.4a60.92,60.92,0,0,1,19.32-9.23c26-7.22,54.06,5.5,54.45,24.77a9,9,0,0,1-3.42,7.61,14,14,0,0,1-10.59,2.5c-3.37-.68-5.77-2.3-6.68-4.58s-.9-4.48-1.54-6.7c-.94-3.25-3.6-5.78-7.4-7.78a18.94,18.94,0,0,0-13-1.57,37.79,37.79,0,0,0-14.7,6.63c-15.26,11.19-25.33,24.17-28.23,39.57-.06.35.51,1,.91,1.09,1.18.15,2.77.39,3.56,0a41.18,41.18,0,0,0,7.38-4.41c7.68-6.21,15-12.63,22.73-18.82a75.73,75.73,0,0,1,11.28-7.5c4.73-2.56,13-.53,14.54,3.44a31.22,31.22,0,0,1,1.48,6.69c.74,4.56,4.68,7.39,10.42,9.15a57.78,57.78,0,0,0,28.85,1.69,132.46,132.46,0,0,0,13-3.13c23.43-7.34,45.86-15.82,65.23-27.73a62.68,62.68,0,0,1,9.41-4.84,11.73,11.73,0,0,1,9.3.48C752,1018.6,754.13,1021.78,753,1024Z"/><path class="cls-1" d="M942.78,1034.53a75.36,75.36,0,0,1-7.61,4.31q-47.14,23.55-94.35,47c-12.81,6.36-25.57,12.8-38.78,18.73a227.07,227.07,0,0,1-26,9.62,69.68,69.68,0,0,1-17.13,2.85c-12.11.52-22.73-4.53-27.72-12.77a40.36,40.36,0,0,1-5.76-19.91,86.22,86.22,0,0,1,.9-14.94c3.9-27.58,11.91-54.7,19.86-81.81,2.87-9.78,5.87-19.54,8.75-29.32a26.56,26.56,0,0,0,.66-4c.31-2.34-2.77-4.6-5.93-4.22-3.88.47-7.68,1.25-11.58,1.61s-7.84.47-11.75.43-7.89-2.33-8.72-4.78c-1-2.89.25-5.56,3.62-7.29a45,45,0,0,1,10.29-3.81c5-1.14,10.25-1.57,15.32-2.49s9.93-2,15.16-3.14c4.84-10.27,7-20.59,9.78-30.78,8.35-30.3,16.36-60.64,24.56-91,1.08-4,2.26-8,3.74-12a17.18,17.18,0,0,1,3.3-4.88c1.87-2.14,6.86-3.41,10.37-2.85,3.77.6,7.33,3,7.61,5.63a26.94,26.94,0,0,1,0,8.11c-1.6,8.09-3.31,16.17-5.48,24.19-8.21,30.32-16.63,60.6-24.9,90.91a10,10,0,0,0-.36,5.34,5,5,0,0,0,3.6,2.68,101.31,101.31,0,0,0,15.62-.36Q840,922,870.4,920.15a67,67,0,0,1,7.8,0c3.49.2,7.19,2.9,7.76,5.5.53,2.44-.84,4.51-3.33,6.09-3.49,2.23-7.92,3.12-12.55,3.6-8.45.87-16.9,1.72-25.32,2.71-17.49,2.05-35,4.19-52.43,6.3-6.65.8-10.12,3.56-11.45,8.11-3.37,11.56-7.27,23-10.56,34.62-5.18,18.25-10.61,36.48-14.82,54.84-3.28,14.31-7,28.68-5.69,43.29a45.13,45.13,0,0,0,2.23,10.69c1.14,3.35,6.19,5.13,10.72,4.31a84.69,84.69,0,0,0,21.31-6.92c14.12-6.66,28.31-13.24,42.2-20.12,29.91-14.82,59.62-29.84,89.48-44.72a160.79,160.79,0,0,1,15-6.54c5.4-2,11.24-1.22,14.31,1.56C948.53,1026.63,947.66,1031.33,942.78,1034.53Z"/><path class="cls-1" d="M972,1083.69a8.1,8.1,0,0,1-7,5.68c-17.78,1.71-33.68-1-47.07-10.53-3.17-2.25-7.11-4-10.62-6s-4.93-4.92-4-8.29a37.18,37.18,0,0,0,1.36-9,33.79,33.79,0,0,1,6.72-20.45c10.07-13.34,25-23.12,45.49-28.66a52.42,52.42,0,0,1,17.39-1.67c14.74,1,24.43,10.47,21,20.5-2.44,7.25-7.85,13.42-14.6,19.06a130,130,0,0,1-30.87,18.84,62.37,62.37,0,0,0-8.91,5.09c-.45.3.06,1.81.78,2.34,3.55,2.6,8.49,1.86,14.49,2.74,2.29-.29,4.83-.56,7.51-.87a8,8,0,0,1,8.59,10.32Zm-40.24-32.44c12.66-4,21-8.41,30-16.64,3.14-2.85,5.54-6.1,8.19-9.2.82-1-1.27-3-2.91-3a16,16,0,0,0-3.87.09c-15.86,4.66-27.14,12.41-32.75,23.77C929.65,1048,929.36,1049.87,931.78,1051.25Z"/></svg>