<?xml version="1.0"?>
<svg xmlns="http://www.w3.org/2000/svg" viewBox="0 0 64 64">
    <path d="M 38 0 C 36.9 0 36 0.9 36 2 L 36 10 L 17 10 C 8.729 10 2 16.729 2 25 L 2 46.183594 C 0.839 46.597594 0 47.698 0 49 C 0 50.654 1.346 52 3 52 L 22.382812 52 L 23.552734 54.341797 C 24.063734 55.363797 25.093328 56 26.236328 56 L 28 56 L 28 63 C 28 63.553 28.447 64 29 64 C 29.553 64 30 63.553 30 63 L 30 56 L 36 56 L 36 63 C 36 63.553 36.447 64 37 64 C 37.553 64 38 63.553 38 63 L 38 56 L 39.763672 56 C 40.907672 56 41.935266 55.363797 42.447266 54.341797 L 43.617188 52 L 61 52 C 62.654 52 64 50.654 64 49 C 64 47.698 63.161 46.597594 62 46.183594 L 62 25 C 62 16.73 55.27 10 47 10 L 42 10 L 42 7.0195312 L 46.390625 6.140625 C 47.320625 5.950625 48 5.1296875 48 4.1796875 L 48 2 C 48 0.9 47.1 0 46 0 L 38 0 z M 38 2 L 46 2 L 46 4.1796875 L 41.609375 5.0605469 C 40.679375 5.2505469 40 6.0695312 40 7.0195312 L 40 10 L 40 12 L 40 23.160156 C 39.35 23.000156 38.65 23.000156 38 23.160156 L 38 12 L 38 10 L 38 2 z M 17 12 C 23.134 12 28.276719 16.276 29.636719 22 L 11 22 C 9.346 22 8 23.346 8 25 L 8 45 C 8 45.352 8.0715937 45.686 8.1835938 46 L 4 46 L 4 25 C 4 17.832 9.832 12 17 12 z M 24.451172 12 L 36 12 L 36 24.359375 C 35.35 25.089375 35 26.02 35 27 C 35 28.07 35.419922 29.070078 36.169922 29.830078 C 36.929922 30.580078 37.93 31 39 31 C 40.07 31 41.070078 30.580078 41.830078 29.830078 C 42.580078 29.070078 43 28.07 43 27 C 43 26.02 42.65 25.089375 42 24.359375 L 42 12 L 47 12 C 54.17 12 60 17.83 60 25 L 60 26 L 54 26 C 53.447 26 53 26.447 53 27 C 53 27.553 53.447 28 54 28 L 60 28 L 60 46 L 32 46 L 32 25 C 32 19.442 28.954172 14.591 24.451172 12 z M 11 24 L 29.949219 24 C 29.975219 24.331 30 24.662 30 25 L 30 32.087891 L 25.585938 35.283203 C 25.236937 35.537203 24.765063 35.538203 24.414062 35.283203 L 10.027344 24.865234 C 10.095344 24.379234 10.496 24 11 24 z M 39 25 C 39.36 25 39.7 25.089297 40 25.279297 C 40.15 25.359297 40.290156 25.469844 40.410156 25.589844 C 40.790156 25.959844 41 26.47 41 27 C 41 27.53 40.790156 28.040156 40.410156 28.410156 C 40.040156 28.790156 39.52 28.980469 39 28.980469 C 38.48 28.980469 37.959844 28.790156 37.589844 28.410156 C 37.209844 28.040156 37 27.53 37 27 C 37 26.47 37.209844 25.959844 37.589844 25.589844 C 37.709844 25.469844 37.85 25.359297 38 25.279297 C 38.3 25.089297 38.64 25 39 25 z M 46 26 C 45.447 26 45 26.447 45 27 C 45 27.553 45.447 28 46 28 L 50 28 C 50.553 28 51 27.553 51 27 C 51 26.447 50.553 26 50 26 L 46 26 z M 10 27.314453 L 23.240234 36.902344 C 23.766234 37.284344 24.384953 37.474609 25.001953 37.474609 C 25.617953 37.474609 26.232766 37.284344 26.759766 36.902344 L 30 34.556641 L 30 46 L 29 46 L 11 46 C 10.448 46 10 45.552 10 45 L 10 27.314453 z M 36 40 C 35.447 40 35 40.447 35 41 L 35 43 C 35 43.553 35.447 44 36 44 C 36.553 44 37 43.553 37 43 L 37 41 C 37 40.447 36.553 40 36 40 z M 41 40 C 40.447 40 40 40.447 40 41 L 40 43 C 40 43.553 40.447 44 41 44 C 41.553 44 42 43.553 42 43 L 42 41 C 42 40.447 41.553 40 41 40 z M 46 40 C 45.447 40 45 40.447 45 41 L 45 43 C 45 43.553 45.447 44 46 44 C 46.553 44 47 43.553 47 43 L 47 41 C 47 40.447 46.553 40 46 40 z M 51 40 C 50.447 40 50 40.447 50 41 L 50 43 C 50 43.553 50.447 44 51 44 C 51.553 44 52 43.553 52 43 L 52 41 C 52 40.447 51.553 40 51 40 z M 56 40 C 55.447 40 55 40.447 55 41 L 55 43 C 55 43.553 55.447 44 56 44 C 56.553 44 57 43.553 57 43 L 57 41 C 57 40.447 56.553 40 56 40 z M 3 48 L 11 48 L 29 48 L 31 48 L 61 48 C 61.552 48 62 48.448 62 49 C 62 49.552 61.552 50 61 50 L 43 50 L 23 50 L 3 50 C 2.448 50 2 49.552 2 49 C 2 48.448 2.448 48 3 48 z M 24.617188 52 L 41.382812 52 L 40.658203 53.447266 C 40.488203 53.788266 40.145672 54 39.763672 54 L 37 54 L 29 54 L 26.236328 54 C 25.854328 54 25.511797 53.788266 25.341797 53.447266 L 24.617188 52 z"/>
</svg>
