<?xml version="1.0" encoding="utf-8"?>
<!-- Generator: Adobe Illustrator 20.1.0, SVG Export Plug-In . SVG Version: 6.00 Build 0)  -->
<svg version="1.1" id="圖層_1" xmlns="http://www.w3.org/2000/svg" xmlns:xlink="http://www.w3.org/1999/xlink" x="0px" y="0px"
	 viewBox="0 0 71 17.8" style="enable-background:new 0 0 71 17.8;" xml:space="preserve">
<style type="text/css">
	.st0{opacity:0.5;}
	.st1{fill:#FFCD05;}
	.st2{fill:none;}
</style>
<title>nav</title>
<g class="st0">
	<path class="st1" d="M-0.2,0.7c0.6-0.5,67.4-0.9,67.6-0.5C67.1,0.7,0,1.2-0.2,0.7"/>
	<path class="st1" d="M28.7,17.5l40.6-0.4c0.2,0,0.4-0.1,0.5-0.1l-0.2-1.6c0.4-1.2,0.4-1.2,1-1.3c0.3,0,0.5-0.4,0.4-1.6
		C71,10.7,70.8,9,70.6,7.4c-0.2-1.8-0.6-3.5-1.1-4c-0.5-0.4-1.1-0.6-1.7-0.6c-4,0-8.1,0-12.1,0.1L30.2,3.1l-29,0.4
		c-0.2,0-0.3,0-0.5,0.1l0.1,0.8C0.6,4.4,0.4,4.5,0.4,4.6c0,1.1-0.3,0.7-0.4,0.7c-0.3,0.1-0.6,0-0.9,0.1C-0.8,7-0.4,7.9,0,8
		c0.6,0.1,1.2,0.3,1.8,0.4V9c-0.5,1.6-1.1,0.6-1.7,1c0.1,1.5,0.2,1.8,0.6,1.8c0.2,0,0.5,0,0.7,0c0.1,0.1,0.2,0.4,0.3,0.7
		c0,0.4,0,0.7-0.1,1c-0.2,0.3-0.2,0.9-0.1,1.3c0.3,1.6,0.6,2.9,1.2,2.9C11.4,17.5,20,17.5,28.7,17.5 M56.8,14.4
		c0.1-0.8,12.2-1.6,12.2-0.8C69,14.5,56.9,15.4,56.8,14.4"/>
	<rect x="-1" y="-11.2" class="st2" width="72" height="42.2"/>
</g>
</svg>
