<svg id="圖層_1" data-name="圖層 1" xmlns="http://www.w3.org/2000/svg" viewBox="0 0 436.73 295.14"><defs><style>.cls-1{opacity:0.8;}.cls-2{fill:#f5c61f;}</style></defs><title>round</title><g class="cls-1"><path class="cls-2" d="M436.73,110.82c-4.46,18.31-17.27,30.75-29.36,44.21a447,447,0,0,1-43.58,41.78c-33.31,28.3-71.1,49.28-111.34,65.83-26.45,10.88-53.35,20.69-80.07,30.91-1.87.71-3.93.91-7,1.59,2.32-6.79,4.53-11.86,10.92-13.89,4.15-1.32,9-1.94,9.52-7.8l-30.76,11L154,283c1.52-1.11,2.9-2.62,4.6-3.26,16-6.07,32.12-12,48.19-18a12,12,0,0,0,4.78-2.85l-49,17.7.31-6.78-4.39.46c.19-4.22,2-6.68,5.77-8,4.89-1.65,9.7-3.52,14.52-5.37a9.94,9.94,0,0,0,4.05-2.78c-6.55.86-11-6.32-18.15-3.5-3.54,1.4-5.1-1.48-2.79-5,5.62-8.63,13.44-14.44,23.1-18.18,30.42-11.77,61-23.17,91-35.88a349.25,349.25,0,0,0,84.17-50.44c.65-.52,1.33-1,1.93-1.58,13-12.43,12.83-8.22,4.41-25.47C359.62,100,346.7,92.86,333.1,86.92A198.41,198.41,0,0,0,228.19,71.6c-40.71,4.87-81.05,11.62-120.12,24.33-12.6,4.1-24.52,10.27-36.89,15.15-5.92,2.34-8.05,7-8.23,12.47-.63,19.75.22,39.29,10.16,57.26,1,1.86,1.43,5.49.34,6.83A70.2,70.2,0,0,1,62.31,198c-.77.61-3.89-.18-4.45-1.17-2-3.5-4.13-3.17-7-1.3-1.91,1.26-4,2.2-6.55,3.54,1.35,2.74,2.42,5.31,3.82,7.7,3.93,6.69,3.41,8.21-4.67,11.33L36,204.38c-6.57,3.76-7.37,6-4,11.75,4.52,7.8,2.49,14-7.07,18.78C14.35,211.09,6,186.84,3.81,160.54a34.39,34.39,0,0,0-.57,4.89c.34,15,1.65,30,6.78,44.25,1,2.78,2.95,5.22,4.12,8a28.26,28.26,0,0,1,1.19,5.5l-1.93.7c-2.08-3.83-4.7-7.47-6.15-11.53C1.65,196.6-1.1,180.15.41,163.68a262.63,262.63,0,0,1,8.5-45.38c6.47-23.55,22.47-40.56,42-54.27,26.85-18.89,56.75-31.41,88.28-40,42.65-11.61,85.94-20,130-23.4A201.85,201.85,0,0,1,371.3,19c19.13,8.91,35.12,21.49,46,40.09C420.68,65,425.66,70,428.83,76c3.32,6.25,5.33,13.2,7.91,19.85ZM230.42,257.31c35.21-9.94,112.3-48.74,122.71-62ZM326.95,67.58c-23.83-11.33-48.64-16.6-75-12.06C277.29,57.35,302.63,59.23,326.95,67.58ZM101,79.23,175.7,60.36C150.15,64.44,124.78,69.17,101,79.23Zm-1.41,5.4c-8.33,2-17.2,3.25-23.34,12ZM306.78,36.84l-.57,1.33,32.13,10,.45-1.46Z"/></g></svg>