<?xml version="1.0" encoding="utf-8"?>
<!-- Generator: Adobe Illustrator 20.1.0, SVG Export Plug-In . SVG Version: 6.00 Build 0)  -->
<svg version="1.1" id="圖層_1" xmlns="http://www.w3.org/2000/svg" xmlns:xlink="http://www.w3.org/1999/xlink" x="0px" y="0px"
	 viewBox="0 0 566.9 32" style="enable-background:new 0 0 566.9 32;" xml:space="preserve">
<style type="text/css">
	.st0{opacity:0.58;}
	.st1{clip-path:url(#SVGID_2_);}
	.st2{fill:#B2B2B2;}
</style>
<title>skill</title>
<g class="st0">
	<defs>
		<rect id="SVGID_1_" y="-14.7" class="st0" width="566.9" height="64"/>
	</defs>
	<clipPath id="SVGID_2_">
		<use xlink:href="#SVGID_1_"  style="overflow:visible;"/>
	</clipPath>
	<g class="st1">
		<path class="st2" d="M5.8,3.4c4.4-0.8,530.4-1.4,532-0.7C535.8,3.4,7.8,4.2,5.8,3.4"/>
		<path class="st2" d="M233.6,28.9l320-0.6c1.2,0,2.5-0.1,4.2-0.2l-1.6-2.4c3.2-1.8,3.2-1.8,7.6-1.9c2.7,0,3.6-0.6,3.1-2.5
			c-0.6-2.7-1.6-5.3-3.1-7.7c-2-3.1-5.2-5.3-8.9-6c-4.4-0.7-8.9-1-13.3-0.9c-31.8,0-63.7,0-95.5,0.1L245,7.2L16.9,7.6
			c-1.2,0-2.5,0.1-3.8,0.1l0.5,1.2c-1.2,0.2-3,0.2-3.1,0.4c-0.4,1.6-2,1-3.2,1c-2.3,0.1-4.7,0.1-7.3,0.1c1.7,2.5,4.4,4,7.4,4
			c4.8,0.2,9.6,0.4,14.4,0.6l0.2,1c-3.8,2.4-8.9,0.9-13.2,1.5c1,2.3,1.7,2.7,4.6,2.7c1.9,0,3.8-0.1,5.7,0c0.8,0.1,1.5,0.5,2,1.1
			c0.2,0.4-0.5,1.4-1.1,1.5c-1.6,0.5-1.4,1.3-0.7,2c2.4,2.4,4.7,4.5,9.7,4.5C97.2,29.1,165.4,29,233.6,28.9 M455.1,24.4
			c0.8-1.3,96-2.4,96.3-1.2C551,24.5,455.5,25.8,455.1,24.4"/>
	</g>
</g>
</svg>
